<svg 
 xmlns="http://www.w3.org/2000/svg"
 xmlns:xlink="http://www.w3.org/1999/xlink"
 width="706px" height="163px">
<path fill-rule="evenodd" d="M668.153,131.271 C664.43,142.746 658.803,150.854 652.428,155.602 C646.53,160.347 635.73,162.721 619.491,162.721 L588.678,162.721 L588.678,150.183 L602.916,150.183 C608.723,150.183 613.43,149.260 615.878,147.421 C618.710,145.578 620.905,142.603 622.466,138.496 L624.591,132.758 L605.41,132.758 L566.791,29.696 L620.128,29.696 L636.703,100.33 L654.553,29.696 L705.766,29.696 L668.153,131.271 ZM543.630,113.633 C543.630,116.469 544.18,118.275 544.798,119.52 C545.575,119.832 547.382,120.221 550.217,120.221 L562.117,120.221 L562.117,132.758 L509.417,132.758 C498.224,132.758 492.630,127.164 492.630,115.971 L492.630,42.233 L476.55,42.233 L476.55,29.696 L492.630,29.696 L492.630,2.921 L543.630,2.921 L543.630,29.696 L562.330,29.696 L562.330,42.233 L543.630,42.233 L543.630,113.633 ZM407.206,13.121 L380.219,13.121 L380.219,0.583 L463.306,0.583 L463.306,132.758 L407.206,132.758 L407.206,13.121 ZM310.307,13.121 L283.320,13.121 L283.320,0.583 L366.407,0.583 L366.407,132.758 L310.307,132.758 L310.307,13.121 ZM143.922,120.8 L210.647,59.658 C214.754,55.976 217.447,52.964 218.722,50.627 C219.997,48.289 220.635,45.208 220.635,41.383 L220.635,19.708 C220.635,16.876 220.243,15.70 219.466,14.289 C218.686,13.513 216.879,13.121 214.47,13.121 L205.760,13.121 C203.67,13.121 201.297,13.513 200.447,14.289 C199.597,15.70 199.172,16.876 199.172,19.708 L199.172,45.846 L144.560,45.846 L144.560,17.371 C144.560,6.181 150.154,0.583 161.347,0.583 L257.397,0.583 C268.587,0.583 274.185,6.181 274.185,17.371 L274.185,41.171 C274.185,51.231 273.228,58.702 271.316,63.589 C269.403,68.477 265.685,73.331 260.160,78.146 L212.985,120.221 L274.822,120.221 L274.822,132.758 L143.922,132.758 L143.922,120.8 ZM106.949,132.758 L17.62,132.758 C5.869,132.758 0.274,127.164 0.274,115.971 L0.274,79.846 L54.249,79.846 L54.249,113.633 C54.249,116.469 54.674,118.275 55.524,119.52 C56.374,119.832 58.144,120.221 60.837,120.221 L63.174,120.221 C66.6,120.221 67.813,119.832 68.593,119.52 C69.370,118.275 69.762,116.469 69.762,113.633 L69.762,0.583 L123.737,0.583 L123.737,115.971 C123.737,127.164 118.139,132.758 106.949,132.758 Z"/>
</svg>